<svg width="24" height="24" viewBox="0 0 24 24" fill="none" xmlns="http://www.w3.org/2000/svg">
<mask id="mask0_2_103" style="mask-type:alpha" maskUnits="userSpaceOnUse" x="0" y="0" width="24" height="24">
<rect width="24" height="24" fill="#D9D9D9"/>
</mask>
<g mask="url(#mask0_2_103)">
<path d="M11.9992 20C11.8574 20 11.7388 19.9521 11.6433 19.8562C11.5478 19.7604 11.5 19.6417 11.5 19.5V12.5H4.5C4.35833 12.5 4.23958 12.452 4.14375 12.356C4.04792 12.26 4 12.1411 4 11.9992C4 11.8574 4.04792 11.7388 4.14375 11.6433C4.23958 11.5478 4.35833 11.5 4.5 11.5H11.5V4.5C11.5 4.35833 11.548 4.23958 11.644 4.14375C11.74 4.04792 11.8589 4 12.0008 4C12.1426 4 12.2612 4.04792 12.3567 4.14375C12.4522 4.23958 12.5 4.35833 12.5 4.5V11.5H19.5C19.6417 11.5 19.7604 11.548 19.8562 11.644C19.9521 11.74 20 11.8589 20 12.0008C20 12.1426 19.9521 12.2612 19.8562 12.3567C19.7604 12.4522 19.6417 12.5 19.5 12.5H12.5V19.5C12.5 19.6417 12.452 19.7604 12.356 19.8562C12.26 19.9521 12.1411 20 11.9992 20Z" fill="#1C1B1F"/>
</g>
</svg>
