<svg width="24" height="24" viewBox="0 0 24 24" fill="none" xmlns="http://www.w3.org/2000/svg">
<mask id="mask0_1_85" style="mask-type:alpha" maskUnits="userSpaceOnUse" x="0" y="0" width="24" height="24">
<rect width="24" height="24" fill="#D9D9D9"/>
</mask>
<g mask="url(#mask0_1_85)">
<path d="M12 12.7078L6.75375 17.9538C6.66025 18.0474 6.5455 18.0974 6.4095 18.1038C6.27367 18.1103 6.15258 18.0603 6.04625 17.9538C5.93975 17.8474 5.8865 17.7295 5.8865 17.6C5.8865 17.4705 5.93975 17.3526 6.04625 17.2463L11.2923 12L6.04625 6.75376C5.95258 6.66026 5.90258 6.5455 5.89625 6.4095C5.88975 6.27367 5.93975 6.15259 6.04625 6.04625C6.15258 5.93975 6.2705 5.88651 6.4 5.88651C6.5295 5.88651 6.64742 5.93975 6.75375 6.04625L12 11.2923L17.2463 6.04625C17.3398 5.95259 17.4545 5.90259 17.5905 5.89625C17.7263 5.88975 17.8474 5.93975 17.9538 6.04625C18.0603 6.15259 18.1135 6.2705 18.1135 6.4C18.1135 6.5295 18.0603 6.64742 17.9538 6.75376L12.7078 12L17.9538 17.2463C18.0474 17.3398 18.0974 17.4545 18.1038 17.5905C18.1103 17.7263 18.0603 17.8474 17.9538 17.9538C17.8474 18.0603 17.7295 18.1135 17.6 18.1135C17.4705 18.1135 17.3526 18.0603 17.2463 17.9538L12 12.7078Z" fill="#1C1B1F"/>
</g>
</svg>
