<svg width="24" height="24" viewBox="0 0 24 24" fill="none" xmlns="http://www.w3.org/2000/svg">
<mask id="mask0_9_115" style="mask-type:alpha" maskUnits="userSpaceOnUse" x="0" y="0" width="24" height="24">
<rect width="24" height="24" fill="#D9D9D9"/>
</mask>
<g mask="url(#mask0_9_115)">
<path d="M12.05 19.5C9.95767 19.5 8.17625 18.7698 6.70575 17.3095C5.23525 15.8493 4.5 14.0795 4.5 12V10.6135L2.75375 12.3595C2.66025 12.4532 2.5455 12.5032 2.4095 12.5095C2.27367 12.516 2.15258 12.466 2.04625 12.3595C1.93975 12.2532 1.8865 12.1353 1.8865 12.0058C1.8865 11.8763 1.93975 11.7583 2.04625 11.652L4.4345 9.2635C4.59617 9.102 4.78467 9.02125 5 9.02125C5.21533 9.02125 5.40383 9.102 5.5655 9.2635L7.95375 11.652C8.04742 11.7455 8.09742 11.8603 8.10375 11.9963C8.11025 12.1321 8.06025 12.2532 7.95375 12.3595C7.84742 12.466 7.7295 12.5192 7.6 12.5192C7.4705 12.5192 7.35258 12.466 7.24625 12.3595L5.5 10.6135V12C5.5 13.8077 6.13558 15.3429 7.40675 16.6058C8.67792 17.8686 10.2257 18.5 12.05 18.5C12.368 18.5 12.6882 18.4769 13.0105 18.4307C13.333 18.3846 13.6513 18.307 13.9655 18.198C14.1077 18.1532 14.2429 18.1583 14.3713 18.2135C14.4994 18.2687 14.5917 18.3571 14.648 18.4788C14.7045 18.6044 14.7042 18.7323 14.647 18.8625C14.59 18.9927 14.4903 19.0802 14.348 19.125C13.9775 19.2583 13.5987 19.3542 13.2115 19.4125C12.8243 19.4708 12.4372 19.5 12.05 19.5ZM11.95 5.5C11.632 5.5 11.3118 5.52308 10.9895 5.56925C10.667 5.61542 10.3487 5.693 10.0345 5.802C9.89234 5.84683 9.75617 5.84167 9.626 5.7865C9.49584 5.73133 9.40259 5.64292 9.34625 5.52125C9.28975 5.39942 9.28683 5.27342 9.3375 5.14325C9.38817 5.01308 9.48275 4.92558 9.62125 4.88075C9.99558 4.74742 10.3795 4.65067 10.773 4.5905C11.1667 4.53017 11.559 4.5 11.95 4.5C14.0423 4.5 15.8238 5.23017 17.2943 6.6905C18.7648 8.15067 19.5 9.9205 19.5 12V13.3865L21.2463 11.6405C21.3398 11.5468 21.4545 11.4968 21.5905 11.4905C21.7263 11.484 21.8474 11.534 21.9538 11.6405C22.0603 11.7468 22.1135 11.8647 22.1135 11.9942C22.1135 12.1237 22.0603 12.2417 21.9538 12.348L19.5655 14.7365C19.4038 14.898 19.2153 14.9788 19 14.9788C18.7847 14.9788 18.5962 14.898 18.4345 14.7365L16.0463 12.348C15.9526 12.2545 15.9026 12.1397 15.8963 12.0037C15.8898 11.8679 15.9398 11.7468 16.0463 11.6405C16.1526 11.534 16.2705 11.4808 16.4 11.4808C16.5295 11.4808 16.6474 11.534 16.7538 11.6405L18.5 13.3865V12C18.5 10.1923 17.8644 8.65708 16.5933 7.39425C15.3221 6.13142 13.7743 5.5 11.95 5.5Z" fill="#1C1B1F"/>
</g>
</svg>
