<svg width="24" height="24" viewBox="0 0 24 24" fill="none" xmlns="http://www.w3.org/2000/svg">
<mask id="mask0_2_109" style="mask-type:alpha" maskUnits="userSpaceOnUse" x="0" y="0" width="24" height="24">
<rect width="24" height="24" fill="#D9D9D9"/>
</mask>
<g mask="url(#mask0_2_109)">
<path d="M7.6155 20C7.17117 20 6.79083 19.8418 6.4745 19.5255C6.15817 19.2092 6 18.8288 6 18.3845V6H5.5C5.35833 6 5.23958 5.952 5.14375 5.856C5.04792 5.76 5 5.64108 5 5.49925C5 5.35742 5.04792 5.23875 5.14375 5.14325C5.23958 5.04775 5.35833 5 5.5 5H9C9 4.79367 9.07658 4.61383 9.22975 4.4605C9.38292 4.30733 9.56275 4.23075 9.76925 4.23075H14.2308C14.4373 4.23075 14.6171 4.30733 14.7703 4.4605C14.9234 4.61383 15 4.79367 15 5H18.5C18.6417 5 18.7604 5.048 18.8562 5.144C18.9521 5.24 19 5.35892 19 5.50075C19 5.64259 18.9521 5.76125 18.8562 5.85675C18.7604 5.95225 18.6417 6 18.5 6H18V18.3845C18 18.8288 17.8418 19.2092 17.5255 19.5255C17.2092 19.8418 16.8288 20 16.3845 20H7.6155ZM17 6H7V18.3845C7 18.564 7.05767 18.7115 7.173 18.827C7.2885 18.9423 7.436 19 7.6155 19H16.3845C16.564 19 16.7115 18.9423 16.827 18.827C16.9423 18.7115 17 18.564 17 18.3845V6ZM10.3082 17C10.4502 17 10.569 16.9521 10.6645 16.8563C10.76 16.7604 10.8078 16.6417 10.8078 16.5V8.5C10.8078 8.35833 10.7597 8.23958 10.6637 8.14375C10.5677 8.04792 10.4488 8 10.307 8C10.1652 8 10.0465 8.04792 9.951 8.14375C9.8555 8.23958 9.80775 8.35833 9.80775 8.5V16.5C9.80775 16.6417 9.85575 16.7604 9.95175 16.8563C10.0476 16.9521 10.1664 17 10.3082 17ZM13.693 17C13.8348 17 13.9535 16.9521 14.049 16.8563C14.1445 16.7604 14.1923 16.6417 14.1923 16.5V8.5C14.1923 8.35833 14.1443 8.23958 14.0483 8.14375C13.9524 8.04792 13.8336 8 13.6917 8C13.5497 8 13.431 8.04792 13.3355 8.14375C13.24 8.23958 13.1923 8.35833 13.1923 8.5V16.5C13.1923 16.6417 13.2403 16.7604 13.3363 16.8563C13.4323 16.9521 13.5512 17 13.693 17Z" fill="#1C1B1F"/>
</g>
</svg>
